<?xml version="1.0" encoding="UTF-8"?>
<svg xmlns="http://www.w3.org/2000/svg" xmlns:xlink="http://www.w3.org/1999/xlink" width="30pt" height="30.999991pt" viewBox="0 0 375 374.999991" version="1.2">
<defs>
<clipPath id="clip1">
  <path d="M 64.199219 58.503906 L 322.199219 58.503906 L 322.199219 316.503906 L 64.199219 316.503906 Z M 64.199219 58.503906 "/>
</clipPath>
</defs>
<g id="surface1">
<g clip-path="url(#clip1)" clip-rule="nonzero">
<path style=" stroke:none;fill-rule:nonzero;fill:#88c4be;fill-opacity:1;" d="M 297.953125 58.46875 L 240.414062 115.839844 L 228.007812 103.433594 C 215.085938 90.535156 194.238281 90.535156 181.320312 103.433594 L 157.371094 127.554688 L 150.136719 120.320312 C 148.996094 119.089844 147.335938 118.464844 145.65625 118.597656 C 143.503906 118.8125 141.671875 120.253906 140.984375 122.277344 C 140.273438 124.324219 140.832031 126.585938 142.382812 128.070312 L 252.644531 238.332031 C 253.980469 239.96875 256.113281 240.722656 258.179688 240.25 C 260.226562 239.777344 261.839844 238.160156 262.3125 236.113281 C 262.789062 234.046875 262.035156 231.914062 260.398438 230.582031 L 253.160156 223.34375 L 277.28125 199.398438 C 290.203125 186.476562 290.203125 165.628906 277.28125 152.707031 L 277.28125 152.535156 L 264.875 140.132812 L 322.246094 82.761719 Z M 129.289062 134.960938 C 127.136719 135.179688 125.304688 136.621094 124.617188 138.644531 C 123.90625 140.691406 124.464844 142.953125 126.015625 144.4375 L 133.25 151.675781 L 109.132812 175.621094 C 96.210938 188.542969 96.210938 209.5625 109.132812 222.484375 L 121.535156 234.886719 L 64.167969 292.257812 L 88.457031 316.550781 L 145.828125 259.179688 L 158.234375 271.582031 C 171.152344 284.484375 192.171875 284.484375 205.09375 271.582031 L 229.042969 247.464844 L 236.277344 254.699219 C 237.613281 256.335938 239.746094 257.089844 241.8125 256.617188 C 243.859375 256.144531 245.472656 254.527344 245.945312 252.480469 C 246.421875 250.414062 245.667969 248.28125 244.03125 246.945312 L 133.769531 136.6875 C 132.734375 135.585938 131.3125 134.984375 129.804688 134.960938 C 129.632812 134.960938 129.460938 134.960938 129.289062 134.960938 Z M 129.289062 134.960938 "/>
</g>
</g>
</svg>
