<?xml version="1.0" encoding="UTF-8" standalone="no"?>
<svg
   width="30pt"
   height="30.999991pt"
   viewBox="0 0 375 374.999991"
   version="1.2"
   id="svg33"
   sodipodi:docname="disconnected.svg"
   inkscape:version="1.1.1 (3bf5ae0d25, 2021-09-20)"
   xmlns:inkscape="http://www.inkscape.org/namespaces/inkscape"
   xmlns:sodipodi="http://sodipodi.sourceforge.net/DTD/sodipodi-0.dtd"
   xmlns="http://www.w3.org/2000/svg"
   xmlns:svg="http://www.w3.org/2000/svg">
  <sodipodi:namedview
     id="namedview35"
     pagecolor="#ffffff"
     bordercolor="#666666"
     borderopacity="1.0"
     inkscape:pageshadow="2"
     inkscape:pageopacity="0.0"
     inkscape:pagecheckerboard="0"
     inkscape:document-units="pt"
     showgrid="false"
     inkscape:zoom="19.572587"
     inkscape:cx="9.937368"
     inkscape:cy="20.66666"
     inkscape:window-width="1920"
     inkscape:window-height="1017"
     inkscape:window-x="-8"
     inkscape:window-y="-8"
     inkscape:window-maximized="1"
     inkscape:current-layer="svg33" />
  <defs
     id="defs26">
    <clipPath
       id="clip1">
      <path
         d="M 67.632812 67.632812 L 307.632812 67.632812 L 307.632812 307.632812 L 67.632812 307.632812 Z M 67.632812 67.632812 "
         id="path23" />
    </clipPath>
  </defs>
  <g
     id="surface1">
    <g
       clip-path="url(#clip1)"
       clip-rule="nonzero"
       id="g30">
      <path
         style=" stroke:none;fill-rule:nonzero;fill:rgb(240, 52, 52);fill-opacity:1;"
         d="M 285.378906 67.632812 L 259.097656 94.074219 L 247.019531 81.996094 C 234.777344 69.773438 214.863281 69.773438 202.621094 81.996094 L 177.484375 107.296875 L 170.628906 100.441406 C 169.363281 99.136719 167.507812 98.585938 165.730469 98.972656 C 163.773438 99.320312 162.203125 100.746094 161.652344 102.644531 C 161.101562 104.5625 161.671875 106.601562 163.121094 107.949219 L 188.09375 132.921875 L 156.101562 165.078125 L 163.445312 172.425781 L 195.601562 140.433594 L 235.101562 179.933594 L 203.109375 212.089844 L 210.457031 219.433594 L 242.613281 187.441406 L 267.585938 212.414062 C 269.667969 214.496094 273.011719 214.496094 275.09375 212.414062 C 277.175781 210.332031 277.175781 206.988281 275.09375 204.90625 L 268.238281 198.050781 L 293.539062 172.914062 C 305.78125 160.671875 305.78125 140.921875 293.539062 128.679688 L 293.539062 128.515625 L 281.460938 116.4375 L 307.902344 90.15625 Z M 103.707031 161.488281 C 103.480469 161.527344 103.257812 161.589844 103.054688 161.652344 C 101.09375 162 99.523438 163.425781 98.972656 165.324219 C 98.421875 167.242188 98.992188 169.28125 100.441406 170.628906 L 107.296875 177.484375 L 81.996094 202.621094 C 69.753906 214.863281 69.753906 234.777344 81.996094 247.019531 L 94.074219 258.933594 L 67.632812 285.378906 L 90.15625 307.902344 L 116.601562 281.460938 L 128.515625 293.539062 C 140.757812 305.761719 160.671875 305.761719 172.914062 293.539062 L 198.050781 268.238281 L 204.90625 275.09375 C 206.988281 277.175781 210.332031 277.175781 212.414062 275.09375 C 214.496094 273.011719 214.496094 269.667969 212.414062 267.585938 L 107.949219 163.121094 C 106.867188 161.957031 105.296875 161.367188 103.707031 161.488281 Z M 103.707031 161.488281 "
         id="path28" />
    </g>
  </g>
  <path
     style="fill:#ffffff;stroke-width:0.0510919"
     d="M 8.4301642,32.290066 7.2558101,31.114879 8.647681,29.722317 c 0.765529,-0.765908 1.391871,-1.412251 1.391871,-1.436315 0,-0.02407 -0.3530227,-0.391772 -0.7844948,-0.817127 -0.8533366,-0.84124 -1.0591633,-1.127471 -1.2912797,-1.795702 -0.124866,-0.359472 -0.1416707,-0.481491 -0.1406623,-1.021347 9.81e-4,-0.525213 0.020692,-0.672269 0.1374989,-1.025844 0.226308,-0.685032 0.4359577,-0.948191 2.0329232,-2.551793 l 1.4767337,-1.48287 -0.387008,-0.381983 c -0.212855,-0.210091 -0.421844,-0.448002 -0.464422,-0.528692 -0.178767,-0.338788 0.09994,-0.747399 0.509793,-0.747399 h 0.212681 l 5.684734,5.683882 c 4.016487,4.015884 5.700747,5.7324 5.739299,5.849216 0.129694,0.392977 -0.270478,0.777547 -0.676446,0.650073 -0.06567,-0.02062 -0.30933,-0.222554 -0.541467,-0.448743 l -0.422069,-0.411253 -1.544968,1.532868 c -1.419224,1.408108 -1.578236,1.549885 -1.953704,1.741943 -0.650022,0.332496 -1.269573,0.448969 -1.943285,0.365327 -0.921518,-0.114407 -1.398433,-0.396373 -2.442725,-1.44421 l -0.809581,-0.812328 -1.413292,1.412617 -1.4132928,1.412616 z"
     id="path452"
     transform="matrix(9.375,0,0,9.375,0,-6.2499449)" />
  <path
     style="fill:#ffffff;stroke-width:0.0510919"
     d="m 22.075279,23.659155 -0.35131,-0.354023 1.694197,-1.727388 1.694196,-1.727387 -2.10772,-2.108181 c -1.159247,-1.159499 -2.122331,-2.102406 -2.140186,-2.095349 -0.01786,0.0071 -0.797497,0.767387 -1.732538,1.689622 l -1.700074,1.676792 -0.375677,-0.373169 -0.375677,-0.37317 1.711999,-1.712554 1.711998,-1.712553 -1.417718,-1.417719 -1.417718,-1.417717 v -0.23399 c 0,-0.199725 0.02443,-0.25582 0.166855,-0.383074 0.178302,-0.159312 0.392535,-0.192824 0.590109,-0.09231 0.06138,0.03123 0.289309,0.231392 0.50651,0.444812 l 0.394913,0.388037 1.546578,-1.535354 C 21.9565,9.1227562 22.038593,9.0503389 22.454876,8.8470869 23.084393,8.5397222 23.4297,8.4660776 24.111479,8.4937785 c 1.086882,0.04416 1.542773,0.2843924 2.710413,1.4282535 l 0.818808,0.802134 1.405403,-1.4025036 1.405402,-1.4025033 1.174355,1.1751872 1.174354,1.1751877 -1.401507,1.402202 -1.401507,1.402202 0.741709,0.760006 c 0.407941,0.418003 0.816054,0.86806 0.906917,1.000126 0.718135,1.043772 0.808874,2.265935 0.252612,3.402438 -0.205601,0.420067 -0.275999,0.499901 -1.759997,1.995871 l -1.54583,1.558302 0.422976,0.436628 c 0.455052,0.46974 0.527404,0.62662 0.41408,0.897843 -0.08982,0.214978 -0.262898,0.326015 -0.508162,0.326015 -0.198461,0 -0.239991,-0.03624 -1.624038,-1.417047 l -1.420369,-1.417048 -1.69862,1.698053 c -0.934241,0.933929 -1.710606,1.698053 -1.725255,1.698053 -0.01465,0 -0.184723,-0.15931 -0.377944,-0.354023 z"
     id="path491"
     transform="matrix(9.375,0,0,9.375,0,-6.2499449)" />
  <path
     style="fill:#b3b3b3;stroke-width:0.0510919"
     d="M 8.4580387,32.26685 7.3115685,31.11953 8.6755602,29.739929 c 0.7501953,-0.758781 1.3639918,-1.407042 1.3639918,-1.440583 0,-0.03354 -0.2939603,-0.362143 -0.6532448,-0.73023 C 8.5935266,26.756913 8.3312963,26.432463 8.1434003,26.031306 7.931196,25.57825 7.8426015,25.171951 7.8426015,24.651826 c 0,-0.780277 0.228594,-1.425208 0.7153213,-2.018129 0.1499395,-0.182654 0.8665236,-0.930817 1.5924092,-1.662586 0.725886,-0.731769 1.319792,-1.350188 1.319792,-1.374264 0,-0.02408 -0.195426,-0.246498 -0.434281,-0.494272 -0.381659,-0.395911 -0.434281,-0.472856 -0.434281,-0.635022 0,-0.237168 0.206209,-0.45302 0.482255,-0.504806 l 0.199377,-0.0374 4.69588,4.691629 c 2.582733,2.580396 5.165336,5.179597 5.739116,5.776002 0.899806,0.935286 1.043236,1.106169 1.043236,1.242908 0,0.239474 -0.240198,0.457226 -0.504358,0.457226 -0.188493,0 -0.244386,-0.03684 -0.669321,-0.441226 l -0.463654,-0.441227 -1.500648,1.486257 c -0.881201,0.87275 -1.628228,1.568715 -1.809717,1.686017 -0.169987,0.109868 -0.511524,0.266118 -0.75897,0.347223 -0.728193,0.238678 -1.599266,0.197592 -2.289209,-0.107973 -0.375508,-0.166308 -0.779548,-0.491125 -1.609393,-1.293831 l -0.740832,-0.716603 -1.405408,1.401212 -1.4054072,1.401212 z"
     id="path85"
     transform="matrix(9.375,0,0,9.375,0,-6.2499449)" />
  <path
     style="fill:#cccccc;stroke-width:0.0510919"
     d="m 22.100319,23.633103 -0.326058,-0.328982 1.655923,-1.69357 c 0.910757,-0.931464 1.662509,-1.72167 1.67056,-1.756012 0.01652,-0.07045 -4.142871,-4.220428 -4.229999,-4.220428 -0.03084,0 -0.814379,0.751585 -1.741188,1.67019 l -1.685109,1.670189 -0.356477,-0.353746 -0.356477,-0.353745 1.686578,-1.687142 c 0.927617,-0.927928 1.686577,-1.710163 1.686577,-1.7383 0,-0.02814 -0.632261,-0.683107 -1.405026,-1.455488 -1.350776,-1.350106 -1.405026,-1.411893 -1.405026,-1.600203 0,-0.278476 0.220367,-0.494564 0.504358,-0.494564 0.188496,0 0.244387,0.03685 0.669385,0.441287 l 0.463717,0.441287 1.544269,-1.528569 c 1.409588,-1.3952582 1.579915,-1.5469637 1.953003,-1.739487 0.647696,-0.3342277 0.900206,-0.3886458 1.680425,-0.3621453 1.106499,0.037583 1.477819,0.2346343 2.736051,1.451963 0.417068,0.4035093 0.77788,0.7336543 0.801804,0.7336543 0.02392,0 0.664591,-0.620785 1.423705,-1.3795222 l 1.380206,-1.3795223 1.148796,1.1496476 1.148796,1.1496479 -1.40254,1.403236 -1.40254,1.403236 0.690957,0.704265 c 0.817818,0.833568 1.064722,1.13829 1.266681,1.563299 0.21722,0.457126 0.311752,0.881166 0.311752,1.398421 0,0.560623 -0.09193,0.936162 -0.366353,1.496582 -0.202557,0.413654 -0.280399,0.502024 -1.736616,1.97148 -0.838504,0.846127 -1.524554,1.556301 -1.524554,1.578165 0,0.02186 0.181989,0.23201 0.40442,0.466993 0.458444,0.484315 0.525909,0.646142 0.376444,0.902969 -0.102941,0.176883 -0.365029,0.297658 -0.547434,0.252267 -0.05814,-0.01447 -0.744281,-0.660031 -1.524768,-1.434587 l -1.419068,-1.408284 -1.697818,1.69725 c -0.933799,0.933488 -1.70985,1.69725 -1.724557,1.69725 -0.01471,0 -0.173467,-0.148042 -0.352799,-0.328982 z"
     id="path124"
     transform="matrix(9.375,0,0,9.375,0,-6.2499449)" />
  <path
     style="fill:#cccccc;stroke-width:0.0510919"
     d="M 8.4813691,32.239087 7.358245,31.115092 8.1764834,30.284776 c 1.4426361,-1.463929 1.8630686,-1.91231 1.8630686,-1.986918 0,-0.04012 -0.3022965,-0.394068 -0.6717698,-0.786558 -0.9873239,-1.048827 -1.2256804,-1.397722 -1.3980134,-2.046343 -0.1035779,-0.389844 -0.1044576,-1.229579 -0.0017,-1.618181 0.1000411,-0.378311 0.3232996,-0.81873 0.5790407,-1.142267 0.1112877,-0.14079 0.8144916,-0.882868 1.5626755,-1.649064 0.748184,-0.766195 1.360334,-1.423439 1.360334,-1.460541 0,-0.0371 -0.161168,-0.240037 -0.358152,-0.450965 -0.448957,-0.480738 -0.519236,-0.608117 -0.448103,-0.812168 0.06076,-0.174311 0.310257,-0.346961 0.501789,-0.347243 0.104333,-1.54e-4 1.203042,1.075393 5.597414,5.479412 3.00718,3.013781 5.575524,5.608534 5.707431,5.766116 0.259814,0.310385 0.29768,0.474952 0.150421,0.65373 -0.110749,0.134454 -0.359391,0.209012 -0.51055,0.153094 -0.06251,-0.02312 -0.30964,-0.230202 -0.549188,-0.460178 l -0.435542,-0.418139 -1.391832,1.375439 c -0.765508,0.756492 -1.532758,1.492267 -1.705,1.635056 -0.577712,0.478923 -1.363176,0.719545 -2.180912,0.66811 -0.975146,-0.06134 -1.395553,-0.306134 -2.724414,-1.586381 -0.369225,-0.355717 -0.69095,-0.646759 -0.714944,-0.646759 -0.02399,0 -0.664721,0.620787 -1.423837,1.379527 l -1.3802118,1.379527 z"
     id="path200"
     transform="matrix(9.375,0,0,9.375,0,-6.2499449)" />
  <path
     style="fill:#cccccc;stroke-width:0.0510919"
     d="m 22.12238,23.604039 -0.303752,-0.306954 0.591024,-0.599926 c 1.343074,-1.363306 2.702,-2.788331 2.702,-2.833427 0,-0.07343 -1.722391,-1.842328 -3.029907,-3.111725 -0.978554,-0.950025 -1.180591,-1.123899 -1.26211,-1.086173 -0.05338,0.0247 -0.835431,0.766925 -1.73789,1.649382 l -1.640835,1.604468 -0.325953,-0.323055 -0.325953,-0.323056 1.657823,-1.68077 c 0.911802,-0.924424 1.657822,-1.712027 1.657822,-1.750231 0,-0.0382 -0.616663,-0.697989 -1.370363,-1.466192 -0.7537,-0.768202 -1.383547,-1.447146 -1.399661,-1.508763 -0.04727,-0.180753 0.114319,-0.440674 0.314098,-0.505246 0.09642,-0.03116 0.220614,-0.04481 0.275992,-0.03033 0.05538,0.01448 0.305293,0.220235 0.555367,0.457229 l 0.454679,0.430899 1.545825,-1.524589 c 1.613327,-1.5911638 1.821105,-1.7584482 2.467367,-1.986503 0.29777,-0.1050781 0.44545,-0.1236478 0.990625,-0.1245648 1.235068,-0.00208 1.533485,0.1508834 3.011652,1.5436978 0.350855,0.330595 0.666603,0.601083 0.701661,0.601083 0.03506,0 0.680584,-0.608027 1.4345,-1.3511711 l 1.370755,-1.3511709 1.120432,1.1213011 1.120433,1.1213009 -1.40157,1.402265 -1.40157,1.402265 0.766524,0.784311 c 0.788421,0.806716 0.98037,1.045034 1.213482,1.506627 0.20786,0.41159 0.290654,0.80197 0.292761,1.380398 0.0022,0.616795 -0.07713,0.936284 -0.3755,1.511405 -0.185049,0.356687 -0.370698,0.56744 -1.706935,1.937747 -0.824617,0.845641 -1.499304,1.56463 -1.499304,1.597751 0,0.03312 0.133144,0.20724 0.295875,0.386933 0.433814,0.479031 0.521722,0.606572 0.520459,0.755111 -0.0019,0.226457 -0.26198,0.46571 -0.506201,0.46571 -0.06937,0 -0.603436,-0.491664 -1.564471,-1.440251 l -1.45915,-1.44025 -1.696277,1.69571 c -0.932952,0.93264 -1.708365,1.695709 -1.72314,1.695709 -0.01478,0 -0.163552,-0.138129 -0.330614,-0.306954 z"
     id="path239"
     transform="matrix(9.375,0,0,9.375,0,-6.2499449)" />
  <path
     style="fill:#c6c3bd;stroke-width:0.0510919;fill-opacity:1"
     d="m 8.4819585,32.214131 -1.0968751,-1.097766 0.8948579,-0.90759 c 1.1214795,-1.137436 1.6194656,-1.659052 1.7174531,-1.798949 0.094992,-0.135619 0.075212,-0.163375 -0.8029711,-1.126769 -1.0226491,-1.121879 -1.219094,-1.499889 -1.2611967,-2.426864 -0.03111,-0.684944 0.03153,-1.047529 0.26366,-1.526164 0.2267613,-0.467566 0.3737623,-0.641839 1.6935331,-2.007716 0.6018823,-0.62291 1.0943313,-1.146023 1.0943313,-1.162473 0,-0.01645 0.09317,-0.114085 0.207048,-0.216965 0.113876,-0.102881 0.228027,-0.226257 0.25367,-0.274171 0.05045,-0.09427 -0.0046,-0.178239 -0.499037,-0.760607 -0.323033,-0.380515 -0.347202,-0.541676 -0.111036,-0.740397 0.276511,-0.232669 0.336784,-0.201281 1.193118,0.621334 1.810875,1.739569 10.433778,10.450344 10.553024,10.660563 0.115003,0.202741 0.120056,0.23564 0.05489,0.357404 -0.04433,0.08284 -0.145591,0.156225 -0.26485,0.191956 -0.236815,0.07095 -0.2762,0.04829 -0.843552,-0.485437 l -0.410072,-0.385766 -0.302285,0.308896 c -0.166256,0.169893 -0.888689,0.875664 -1.605407,1.56838 -1.338858,1.294024 -1.546264,1.453514 -2.171125,1.669546 -0.277696,0.09601 -1.558441,0.1845 -1.558353,0.107673 2.9e-5,-0.02435 -0.05743,-0.03329 -0.127678,-0.01986 -0.07025,0.01343 -0.12773,0.0046 -0.12773,-0.01959 0,-0.0242 -0.02874,-0.04402 -0.06386,-0.04405 -0.140366,-1.02e-4 -0.695206,-0.305326 -0.999335,-0.549771 -0.177303,-0.142508 -0.629364,-0.546797 -1.004579,-0.89842 -0.505189,-0.473425 -0.707623,-0.632669 -0.780149,-0.613703 -0.05387,0.01409 -0.693729,0.621732 -1.421916,1.350324 -0.728188,0.728592 -1.3358402,1.324713 -1.3503383,1.324713 -0.014498,0 -0.5199538,-0.493995 -1.1232352,-1.097766 z"
     id="path1093"
     transform="matrix(9.375,0,0,9.375,0,-6.2499449)" />
  <path
     style="fill:#c6c3bd;fill-opacity:1;stroke-width:0.0510919"
     d="M 8.4791632,32.193257 7.3827747,31.124318 8.488212,30.008384 c 1.380101,-1.393205 1.576827,-1.61604 1.542519,-1.747233 C 10.016274,28.205865 9.7288798,27.853967 9.3920784,27.479157 8.2376665,26.194467 8.042953,25.861581 7.9750286,25.056542 7.8985233,24.1498 8.0328408,23.540759 8.437409,22.959954 c 0.2321966,-0.333346 0.4556726,-0.58389 1.2935969,-1.450278 1.3629721,-1.409272 1.7270131,-1.829891 1.6948081,-1.958205 -0.01674,-0.06669 -0.158378,-0.277348 -0.314755,-0.468125 -0.156376,-0.190777 -0.319928,-0.415723 -0.363447,-0.49988 -0.07315,-0.14145 -0.07187,-0.162729 0.01685,-0.281563 0.175671,-0.235292 0.274116,-0.27221 0.47575,-0.178413 0.106903,0.04973 1.79329,1.697721 4.193154,4.097684 5.226165,5.226382 7.127032,7.17271 7.19467,7.366738 0.04724,0.135522 0.03847,0.170485 -0.07002,0.278977 -0.08311,0.08311 -0.181867,0.124037 -0.299289,0.124037 -0.148145,0 -0.249262,-0.06693 -0.653744,-0.432688 L 21.126487,29.12555 20.79439,29.445608 c -0.182654,0.176032 -0.72295,0.701023 -1.200659,1.166647 -1.536117,1.497256 -1.889439,1.788449 -2.403317,1.980716 -0.327564,0.122557 -1.276286,0.230967 -1.643529,0.187805 -0.566976,-0.06664 -1.10129,-0.388113 -2.00754,-1.207858 -0.351257,-0.317728 -0.750263,-0.665977 -0.886681,-0.773888 l -0.248032,-0.1962 -0.186249,0.162752 c -0.102437,0.08951 -0.72021,0.681615 -1.37283,1.31578 -0.652619,0.634165 -1.2053504,1.159284 -1.2282911,1.166931 -0.022941,0.0076 -0.5350851,-0.46712 -1.1380987,-1.055036 z"
     id="path2242"
     transform="matrix(9.375,0,0,9.375,0,-6.2499449)" />
  <path
     style="fill:#c6c3bd;fill-opacity:1;stroke-width:0.0510919"
     d="m 22.096675,23.603879 -0.30391,-0.307114 0.997753,-1.008502 c 1.633931,-1.651531 2.295588,-2.354532 2.295588,-2.439026 0,-0.148428 -4.086153,-4.215126 -4.235291,-4.215126 -0.0273,0 -0.805957,0.745998 -1.730352,1.657772 l -1.680718,1.657771 -0.340338,-0.342966 -0.340338,-0.342966 1.433469,-1.429762 c 0.788408,-0.78637 1.548672,-1.561368 1.689474,-1.722219 l 0.256004,-0.292457 -1.382136,-1.405228 c -0.803916,-0.817347 -1.39577,-1.459548 -1.414725,-1.535069 -0.08465,-0.337275 0.285053,-0.653317 0.606006,-0.518046 0.07581,0.03195 0.329344,0.23392 0.563415,0.448822 l 0.425584,0.390731 1.018525,-1.004655 c 1.995291,-1.9681185 2.107612,-2.0670219 2.657201,-2.3397798 l 0.49785,-0.2470797 0.873229,0.00123 c 0.792315,0.00112 0.900728,0.012216 1.170011,0.1197521 0.394449,0.1575184 0.846663,0.5052802 1.719538,1.3223584 0.397757,0.372332 0.748779,0.676967 0.780048,0.676967 0.03127,0 0.674098,-0.61451 1.428508,-1.3655772 l 1.371656,-1.3655776 1.135561,1.1355616 1.135561,1.1355612 -1.40005,1.400746 -1.400051,1.400745 0.720162,0.757988 c 0.835695,0.879591 0.996344,1.074261 1.172687,1.421035 0.232662,0.457524 0.326732,0.803559 0.354493,1.303991 0.0338,0.609307 -0.05704,1.062126 -0.32323,1.611302 -0.210578,0.434439 -0.358799,0.602936 -2.11069,2.399409 -0.465854,0.477709 -0.921268,0.950182 -1.012031,1.04994 l -0.165024,0.181377 0.386738,0.450191 c 0.212705,0.247605 0.407617,0.505107 0.433135,0.572227 0.08737,0.22981 -0.104288,0.50266 -0.393759,0.560554 -0.177361,0.03547 -0.314135,-0.08438 -2.094484,-1.835401 -0.538378,-0.529508 -0.99465,-0.962832 -1.013937,-0.962941 -0.01929,-1.02e-4 -0.788577,0.749224 -1.709533,1.665186 -0.920957,0.915961 -1.695441,1.665384 -1.721078,1.665384 -0.02564,0 -0.183371,-0.138201 -0.350521,-0.307114 z"
     id="path2281"
     transform="matrix(9.375,0,0,9.375,0,-6.2499449)" />
</svg>
