<?xml version="1.0" encoding="iso-8859-1"?>
<!-- Generator: Adobe Illustrator 19.0.0, SVG Export Plug-In . SVG Version: 6.00 Build 0)  -->
<svg version="1.1" id="Capa_1" xmlns="http://www.w3.org/2000/svg" xmlns:xlink="http://www.w3.org/1999/xlink" x="0px" y="0px"
	 viewBox="0 0 480 480"  height="30"  width="30" style="enable-background:new 0 0 480 480;" xml:space="preserve">
<g>
	<g>
		<path d="M368,44H112c-8.837,0-16,7.163-16,16v48c0,8.837,7.163,16,16,16h256c8.837,0,16-7.163,16-16V60
			C384,51.163,376.837,44,368,44z M368,108H112V60h256V108z"/>
	</g>
</g>
<g>
	<g>
		<circle cx="136" cy="84" r="8"/>
	</g>
</g>
<g>
	<g>
		<rect x="176" y="76" width="16" height="16"/>
	</g>
</g>
<g>
	<g>
		<rect x="208" y="76" width="16" height="16"/>
	</g>
</g>
<g>
	<g>
		<rect x="240" y="76" width="32" height="16"/>
	</g>
</g>
<g>
	<g>
		<path d="M368,140H112c-8.837,0-16,7.163-16,16v48c0,8.837,7.163,16,16,16h256c8.837,0,16-7.163,16-16v-48
			C384,147.163,376.837,140,368,140z M368,204H112v-48h256V204z"/>
	</g>
</g>
<g>
	<g>
		<circle cx="136" cy="180" r="8"/>
	</g>
</g>
<g>
	<g>
		<rect x="176" y="172" width="16" height="16"/>
	</g>
</g>
<g>
	<g>
		<rect x="208" y="172" width="16" height="16"/>
	</g>
</g>
<g>
	<g>
		<rect x="240" y="172" width="32" height="16"/>
	</g>
</g>
<g>
	<g>
		<circle cx="136" cy="276" r="8"/>
	</g>
</g>
<g>
	<g>
		<rect x="176" y="268" width="16" height="16"/>
	</g>
</g>
<g>
	<g>
		<rect x="208" y="268" width="16" height="16"/>
	</g>
</g>
<g>
	<g>
		<rect x="240" y="268" width="32" height="16"/>
	</g>
</g>
<g>
	<g>
		<path d="M264,404c0-8.837-7.163-16-16-16v-72h120c8.837,0,16-7.163,16-16v-48c0-8.837-7.163-16-16-16H112c-8.837,0-16,7.163-16,16
			v48c0,8.837,7.163,16,16,16h120v72c-8.837,0-16,7.163-16,16H0v16h216c0,8.837,7.163,16,16,16h16c8.837,0,16-7.163,16-16h216v-16
			H264z M112,300v-48h256v48H112z M248,420h-16v-16h16V420z"/>
	</g>
</g>
<g>
</g>
<g>
</g>
<g>
</g>
<g>
</g>
<g>
</g>
<g>
</g>
<g>
</g>
<g>
</g>
<g>
</g>
<g>
</g>
<g>
</g>
<g>
</g>
<g>
</g>
<g>
</g>
<g>
</g>
</svg>
